# xmcd CD database file
#
# Track frame offsets:
#	150
#	22854
#	39719
#	56823
#	69517
#	87932
#	112651
#	129994
#	147150
#	165783
#	180282
#	198173
#	216004
#	233803
#	256251
#
# Disc length: 3796 seconds
#
# Revision: 0
# Processed by: cddbd v1.5.1PL2 Copyright (c) Steve Scherf et al.
# Submitted via: CDex 1.51
#
DISCID=b80ed20f
DTITLE=Various Artist - Historia Musical De La Salsa-Epoca De Oro
DYEAR=2001
DGENRE=Salsa
TTITLE0=Jibaro Soy
TTITLE1=El Adios
TTITLE2=Oh Jo Ah Ja
TTITLE3=Descarga Moderna
TTITLE4=Romance Guajiro
TTITLE5=Mil Gracias
TTITLE6=Arrebatadora
TTITLE7=La Runidera
TTITLE8=Quien
TTITLE9=Fuerza de Cara
TTITLE10=Fiesta Sabrosa
TTITLE11=Borracho no vale
TTITLE12=La aceitera
TTITLE13=Ayer
TTITLE14=Panteon de Amor
EXTD=YEAR: 2001
EXTT0=
EXTT1=
EXTT2=
EXTT3=
EXTT4=
EXTT5=
EXTT6=
EXTT7=
EXTT8=
EXTT9=
EXTT10=
EXTT11=
EXTT12=
EXTT13=
EXTT14=
PLAYORDER=
